<?xml version="1.0" encoding="utf-8"?>
<!-- Generator: Adobe Illustrator 26.2.1, SVG Export Plug-In . SVG Version: 6.00 Build 0)  -->
<svg version="1.1" id="Camada_1" xmlns="http://www.w3.org/2000/svg" xmlns:xlink="http://www.w3.org/1999/xlink" x="0px" y="0px"
	 viewBox="0 0 320 126.96" style="enable-background:new 0 0 320 126.96;" xml:space="preserve">
<style type="text/css">
	.st0{fill:#fff;}
</style>
<g>
	<g>
		<g>
			<g>
				<path class="st0" d="M68.72,88.05l-9.05-12.57c-2.44,1.13-5.16,1.76-8.02,1.76H33.63l-0.4-0.4V57.89l0.4-0.4H47.5l0.33,0.17
					l12.1,16.8C65.9,71.42,70,65.22,70,58.07c0-10.12-8.23-18.36-18.36-18.36H28.46v48.17h-0.81V39.32l0.4-0.4h23.59
					c10.57,0,19.16,8.6,19.16,19.16c0,7.41-4.23,13.86-10.41,17.04l8.97,12.46L68.72,88.05z M34.03,76.43h17.61
					c2.69,0,5.24-0.58,7.54-1.62L47.29,58.29H34.03V76.43z"/>
			</g>
		</g>
		<g>
			<path class="st0" d="M49.23,107.66c-24.36,0-44.18-19.82-44.18-44.18S24.87,19.3,49.23,19.3s44.18,19.82,44.18,44.18
				S73.59,107.66,49.23,107.66z M49.23,20.63c-23.63,0-42.85,19.22-42.85,42.85s19.22,42.85,42.85,42.85s42.85-19.22,42.85-42.85
				S72.86,20.63,49.23,20.63z"/>
		</g>
	</g>
	<g>
		<g>
			<path class="st0" d="M118.09,4.72h-0.16c-0.04-0.94-0.39-1.75-1.06-2.42c-0.67-0.67-1.48-1-2.42-1h-0.71V0.76h4.34V4.72z
				 M118.09,34.8v3.96h-4.34v-0.54h0.71c0.94,0,1.75-0.33,2.42-1c0.67-0.67,1.02-1.47,1.06-2.42H118.09z M121.46,0.76v38h-3.53v-38
				H121.46z M128.41,0.76c1.63,0,3.1,0.24,4.43,0.71c1.32,0.47,2.43,1.15,3.34,2.04c0.9,0.89,1.6,1.95,2.09,3.2
				c0.49,1.25,0.73,2.67,0.73,4.26c0,1.74-0.41,3.4-1.22,4.99c-0.81,1.59-1.92,2.89-3.31,3.88c-1.39,1-2.96,1.49-4.7,1.49
				c0.61,0.25,1.28,0.77,2.01,1.55c0.72,0.78,1.36,1.53,1.9,2.25c0.98,1.41,1.84,2.62,2.58,3.64c0.74,1.01,1.49,2.01,2.25,2.99
				c0.76,0.98,1.41,1.76,1.95,2.33c0.72,0.8,1.45,1.5,2.17,2.12c0.72,0.62,1.51,1.1,2.36,1.47c0.85,0.36,1.8,0.54,2.85,0.54v0.54
				h-2.99c-1.67,0-3.1-0.25-4.32-0.76c-1.21-0.51-2.24-1.13-3.07-1.87c-0.83-0.74-1.54-1.46-2.12-2.14
				c-0.11-0.14-0.41-0.56-0.9-1.25c-0.49-0.69-1.07-1.51-1.74-2.47c-0.67-0.96-1.33-1.91-1.98-2.85c-0.65-0.94-1.21-1.75-1.68-2.42
				c-0.47-0.67-0.74-1.06-0.81-1.17c-0.69-0.9-1.45-1.74-2.28-2.5c-0.83-0.76-1.74-1.14-2.71-1.14v-0.54c1.12,0.04,2.08,0.04,2.88,0
				c0.94-0.04,1.97-0.18,3.09-0.43c1.12-0.25,2.17-0.78,3.15-1.57c0.98-0.8,1.72-2.01,2.23-3.64c0.11-0.4,0.2-0.9,0.27-1.49
				c0.07-0.6,0.09-1.18,0.05-1.76c-0.04-2.46-0.66-4.43-1.87-5.89c-1.21-1.47-2.83-2.25-4.86-2.36c-1.01-0.07-2.05-0.1-3.12-0.08
				c-1.07,0.02-2.33,0.03-3.77,0.03c0-0.04-0.05-0.19-0.14-0.46c-0.09-0.27-0.23-0.68-0.41-1.22H128.41z M121.3,34.8h0.16
				c0,0.94,0.34,1.75,1.03,2.42c0.69,0.67,1.5,1,2.44,1h0.65v0.54h-4.29V34.8z"/>
			<path class="st0" d="M168.09,0c3.87,0,7.27,0.82,10.21,2.47c2.93,1.65,5.22,3.95,6.87,6.92c1.65,2.97,2.47,6.42,2.47,10.37
				c0,3.95-0.82,7.4-2.47,10.37c-1.65,2.97-3.94,5.28-6.87,6.92c-2.93,1.65-6.33,2.47-10.21,2.47c-3.84,0-7.22-0.82-10.15-2.47
				c-2.93-1.65-5.22-3.95-6.87-6.92c-1.65-2.97-2.47-6.42-2.47-10.37c0-3.94,0.82-7.4,2.47-10.37c1.65-2.97,3.94-5.27,6.87-6.92
				C160.87,0.82,164.26,0,168.09,0z M168.09,37.89c3.08,0,5.76-0.76,8.06-2.28c2.3-1.52,4.09-3.64,5.38-6.35
				c1.28-2.71,1.93-5.88,1.93-9.5c0-3.62-0.64-6.79-1.93-9.5c-1.29-2.71-3.08-4.83-5.38-6.35c-2.3-1.52-4.99-2.28-8.06-2.28
				c-3.04,0-5.71,0.76-8.01,2.28c-2.3,1.52-4.09,3.64-5.38,6.35c-1.28,2.71-1.93,5.88-1.93,9.5c0,3.62,0.64,6.79,1.93,9.5
				s3.08,4.83,5.38,6.35C162.38,37.13,165.05,37.89,168.09,37.89z"/>
			<path class="st0" d="M228.84,22.91l-0.65,8.52c-0.94,1.56-2.13,2.94-3.56,4.15c-1.43,1.21-3.11,2.17-5.05,2.88
				c-1.94,0.71-4.15,1.06-6.65,1.06c-3.77-0.04-7.11-0.87-10.04-2.5c-2.93-1.63-5.22-3.92-6.87-6.87
				c-1.65-2.95-2.47-6.43-2.47-10.45c0-3.94,0.81-7.39,2.44-10.34c1.63-2.95,3.92-5.25,6.87-6.89c2.95-1.65,6.41-2.47,10.4-2.47
				c2.68,0,5.09,0.35,7.25,1.06c2.15,0.71,4.03,1.58,5.62,2.63l1.09,7.65h-0.49c-0.8-3.18-2.43-5.6-4.89-7.25
				c-2.46-1.65-5.32-2.47-8.58-2.47c-3.19,0-5.94,0.75-8.28,2.25c-2.34,1.5-4.14,3.6-5.43,6.3c-1.28,2.7-1.93,5.85-1.93,9.47
				c0,3.62,0.64,6.79,1.93,9.5c1.28,2.71,3.08,4.83,5.38,6.35c2.3,1.52,4.97,2.32,8.01,2.39c2.57,0,4.95-0.48,7.14-1.44
				c2.19-0.96,4.03-2.53,5.51-4.72c1.48-2.19,2.42-5.13,2.82-8.82H228.84z"/>
			<path class="st0" d="M239.16,4.72H239c-0.04-0.94-0.39-1.75-1.06-2.42c-0.67-0.67-1.48-1-2.42-1h-0.71V0.76h4.34V4.72z
				 M239.16,34.8v3.96h-4.34v-0.54h0.71c0.94,0,1.75-0.33,2.42-1c0.67-0.67,1.02-1.47,1.06-2.42H239.16z M242.52,0.76v38H239v-38
				H242.52z M265.22,19.16v1.63h-23.24v-1.63H265.22z M242.36,4.72V0.76h4.34V1.3c-0.04,0-0.27,0-0.71,0c-0.94,0-1.75,0.34-2.42,1
				c-0.67,0.67-1.02,1.48-1.06,2.42H242.36z M242.36,34.8h0.16c0.04,0.94,0.39,1.75,1.06,2.42c0.67,0.67,1.47,1,2.42,1
				c0.43,0,0.67,0,0.71,0v0.54h-4.34V34.8z M264.89,4.72h-0.16c0-0.94-0.34-1.75-1.03-2.42c-0.69-0.67-1.5-1-2.44-1
				c-0.43,0-0.67,0-0.71,0V0.76h4.34V4.72z M264.89,34.8v3.96h-4.34v-0.54c0.04,0,0.27,0,0.71,0c0.94,0,1.76-0.33,2.44-1
				c0.69-0.67,1.03-1.47,1.03-2.42H264.89z M268.26,0.76v38h-3.53v-38H268.26z M268.1,4.72V0.76h4.34V1.3h-0.71
				c-0.94,0-1.75,0.34-2.42,1c-0.67,0.67-1.02,1.48-1.06,2.42H268.1z M268.1,34.8h0.16c0.04,0.94,0.39,1.75,1.06,2.42
				c0.67,0.67,1.47,1,2.42,1h0.71v0.54h-4.34V34.8z"/>
			<path class="st0" d="M283.51,34.8c-0.25,0.72-0.29,1.34-0.11,1.85c0.18,0.51,0.48,0.9,0.9,1.17c0.42,0.27,0.84,0.41,1.28,0.41
				h0.49v0.54h-10.91v-0.54h0.49c0.83,0,1.69-0.26,2.58-0.79c0.89-0.52,1.62-1.4,2.2-2.63H283.51z M295.19,0l0.49,3.8l-13.63,34.8
				h-3.26l13.9-33.01c0.4-0.9,0.73-1.68,1-2.33s0.51-1.28,0.71-1.9c0.2-0.61,0.3-1.07,0.3-1.36H295.19z M302.84,23.94v1.63h-16.99
				v-1.63H302.84z M295.19,0l16.07,38.44h-4.61L294.1,5.16L295.19,0z M305.28,34.8h4.45c0.54,1.23,1.27,2.11,2.17,2.63
				c0.9,0.53,1.77,0.79,2.61,0.79h0.43v0.54h-12.22v-0.54h0.49c0.69,0,1.3-0.3,1.85-0.9C305.61,36.73,305.68,35.89,305.28,34.8z"/>
		</g>
		<g>
			<path class="st0" d="M151.2,73.8v9.52c-0.88,1.15-2.08,2.31-3.58,3.46c-1.5,1.15-3.34,2.11-5.51,2.86
				c-2.17,0.75-4.72,1.13-7.65,1.13c-4.08-0.04-7.67-0.93-10.79-2.68c-3.12-1.75-5.55-4.19-7.3-7.33c-1.75-3.13-2.63-6.8-2.63-10.99
				c0-4.19,0.87-7.87,2.63-11.02c1.75-3.15,4.18-5.61,7.3-7.36c3.12-1.75,6.71-2.63,10.79-2.63c2.11,0,4.02,0.17,5.71,0.52
				c1.69,0.35,3.22,0.82,4.59,1.41c1.36,0.6,2.61,1.26,3.72,1.99l1.15,8.14h-0.52c-0.58-2.23-1.53-4.11-2.86-5.63
				c-1.33-1.52-2.99-2.68-4.99-3.49c-2-0.81-4.27-1.21-6.81-1.21c-3.23,0-6.08,0.81-8.54,2.42c-2.46,1.62-4.39,3.87-5.77,6.75
				c-1.38,2.89-2.08,6.25-2.08,10.1c0,3.85,0.69,7.21,2.08,10.1s3.31,5.13,5.77,6.72c2.46,1.6,5.31,2.41,8.54,2.45
				c1.69,0,3.32-0.2,4.88-0.61c1.56-0.4,3.03-0.98,4.41-1.73c1.38-0.75,2.62-1.64,3.69-2.68l0.06-10.21c0-1.73-0.98-2.6-2.94-2.6
				h-0.92v-0.58h11.31v0.58h-0.87C152.08,71.21,151.12,72.07,151.2,73.8z"/>
			<path class="st0" d="M181.08,48.76c4.11,0,7.73,0.88,10.85,2.63c3.12,1.75,5.55,4.2,7.3,7.36c1.75,3.15,2.63,6.83,2.63,11.02
				c0,4.19-0.88,7.87-2.63,11.02c-1.75,3.15-4.18,5.61-7.3,7.36c-3.12,1.75-6.73,2.63-10.85,2.63c-4.08,0-7.67-0.87-10.79-2.63
				c-3.12-1.75-5.55-4.2-7.3-7.36c-1.75-3.15-2.63-6.83-2.63-11.02c0-4.19,0.87-7.87,2.63-11.02c1.75-3.15,4.18-5.61,7.3-7.36
				C173.41,49.64,177.01,48.76,181.08,48.76z M181.08,89.04c3.27,0,6.12-0.81,8.57-2.42c2.44-1.62,4.35-3.87,5.71-6.75
				c1.36-2.88,2.05-6.25,2.05-10.1c0-3.85-0.68-7.21-2.05-10.1c-1.37-2.88-3.27-5.14-5.71-6.75c-2.44-1.62-5.3-2.42-8.57-2.42
				c-3.23,0-6.07,0.81-8.51,2.42c-2.44,1.62-4.35,3.87-5.71,6.75c-1.37,2.89-2.05,6.25-2.05,10.1c0,3.85,0.68,7.21,2.05,10.1
				s3.27,5.14,5.71,6.75C175.02,88.23,177.85,89.04,181.08,89.04z"/>
			<path class="st0" d="M211.09,85.75v4.21h-6.4v-0.58c0.04,0,0.35,0,0.92,0c1.04,0,1.96-0.32,2.77-0.95
				c0.81-0.63,1.29-1.53,1.44-2.68H211.09z M214.15,48.76h0.58l1.15,3.4l-3.4,37.79h-3.12L214.15,48.76z M212.76,86.67
				c0,0.04,0,0.08,0,0.12c0,0.04,0,0.1,0,0.17c0,0.62,0.22,1.18,0.66,1.7c0.44,0.52,0.97,0.78,1.59,0.78h0.87v0.52h-3.52v-3.29
				H212.76z M214.72,48.76l16.62,35.95l-1.33,6.06l-16.39-35.54L214.72,48.76z M246.57,48.76l0.46,3.87l-14.48,32.25
				c-0.58,1.31-1.02,2.41-1.33,3.32c-0.31,0.9-0.52,1.76-0.63,2.57h-0.58l-0.81-3.64L246.57,48.76z M247.27,86.67h0.4v3.29h-3.52
				v-0.52h0.87c0.65,0,1.19-0.26,1.62-0.78c0.42-0.52,0.63-1.09,0.63-1.7c0-0.08,0-0.13,0-0.17
				C247.27,86.75,247.27,86.71,247.27,86.67z M247.09,48.76l4.96,41.2h-4.5l-3.17-34.97l2.19-6.23H247.09z M250.32,85.75h1.21
				c0.19,1.15,0.69,2.05,1.5,2.68c0.81,0.63,1.71,0.95,2.71,0.95h0.92v0.58h-6.35V85.75z"/>
			<path class="st0" d="M265.61,53.78h-0.17c0-1-0.37-1.86-1.1-2.57c-0.73-0.71-1.6-1.07-2.6-1.07h-0.69L261,49.57h4.62V53.78z
				 M265.61,85.75v4.21H261v-0.58h0.75c1,0,1.86-0.36,2.57-1.07c0.71-0.71,1.09-1.57,1.13-2.57H265.61z M269.19,49.57v40.39h-3.75
				V49.57H269.19z M284.77,49.57v1.79h-15.75v-1.79H284.77z M282.29,69.19v1.73h-13.27v-1.73H282.29z M284.77,88.17v1.79h-15.75
				v-1.79H284.77z M288.29,80.61l-3.35,9.35h-9.58l2.08-1.79c2.04,0,3.7-0.32,4.99-0.95c1.29-0.63,2.34-1.53,3.14-2.68
				c0.81-1.15,1.52-2.46,2.14-3.92H288.29z M284.77,48.53v1.67l-7.04-0.63c0.85,0,1.74-0.06,2.68-0.17c0.94-0.12,1.82-0.25,2.63-0.4
				C283.85,48.84,284.42,48.69,284.77,48.53z M282.29,65.5v3.81h-3.35v-0.12c0.77-0.04,1.42-0.34,1.96-0.89
				c0.54-0.56,0.81-1.22,0.81-1.99V65.5H282.29z M282.29,70.8v3.81h-0.58v-0.87c0-0.77-0.27-1.43-0.81-1.99
				c-0.54-0.56-1.19-0.84-1.96-0.84V70.8H282.29z M284.77,51.19v4.62h-0.58v-1.04c0-0.92-0.33-1.72-0.98-2.39
				c-0.66-0.67-1.46-1.03-2.42-1.07v-0.12H284.77z"/>
			<path class="st0" d="M305.31,48.76c0.61,0,1.28,0.04,1.99,0.12c0.71,0.08,1.4,0.18,2.08,0.32c0.67,0.14,1.29,0.27,1.85,0.4
				c0.56,0.14,0.99,0.28,1.3,0.43v6.4h-0.52c0-1.85-0.63-3.3-1.9-4.36c-1.27-1.06-2.81-1.59-4.62-1.59c-2.12,0-3.83,0.66-5.13,1.99
				c-1.31,1.33-1.96,2.88-1.96,4.65c0,0.73,0.16,1.59,0.49,2.57c0.33,0.98,0.93,1.9,1.82,2.74l11.37,10.5
				c1.15,1.08,1.92,2.23,2.31,3.46c0.38,1.23,0.58,2.42,0.58,3.58c0,3.19-0.97,5.79-2.91,7.79c-1.94,2-4.57,3-7.88,3
				c-0.92,0-2.01-0.1-3.26-0.29c-1.25-0.19-2.46-0.53-3.63-1.01c-1.17-0.48-2.15-1.11-2.91-1.88c-0.12-0.61-0.17-1.38-0.17-2.31
				c0-0.92,0.08-1.89,0.23-2.91c0.15-1.02,0.37-1.95,0.63-2.8h0.52c-0.19,1.96,0.06,3.67,0.75,5.14c0.69,1.46,1.7,2.57,3.03,3.32
				c1.33,0.75,2.84,1.09,4.53,1.01c2.12-0.12,3.93-0.86,5.45-2.22c1.52-1.37,2.28-3.2,2.28-5.51c0-1.12-0.19-2.12-0.58-3.03
				c-0.38-0.9-0.94-1.68-1.67-2.34l-11.08-10.27c-1.15-1.08-1.96-2.26-2.42-3.55c-0.46-1.29-0.69-2.49-0.69-3.61
				c0-1.62,0.38-3.17,1.15-4.67s1.91-2.72,3.43-3.66C301.26,49.23,303.12,48.76,305.31,48.76z M312.52,49.34v1.21h-4.39v-1.21
				H312.52z"/>
		</g>
		<g>
			<path class="st0" d="M114.08,120.16h-0.33l8.14-19.05l0.3-0.14l6.86,19.18h-2.31l-2.12-5.99h-7.94L114.08,120.16z M121.04,104.05
				l-4.27,9.85h7.75L121.04,104.05z"/>
			<path class="st0" d="M139.65,113.84c0-2.36,0.57-4.18,1.71-5.47c1.14-1.29,2.86-1.93,5.14-1.93c1.07,0,2.15,0.27,3.24,0.82v-7.48
				h1.9v18.45c0,0.53,0.1,0.93,0.31,1.21c0.21,0.28,0.42,0.43,0.64,0.45l0.3,0.05h0.84v0.22h-1.66c-0.74,0-1.31-0.16-1.7-0.49
				c-0.39-0.33-0.59-0.65-0.61-0.98l-0.03-0.46v-0.44c-0.34,0.64-0.92,1.2-1.71,1.69c-0.8,0.49-1.74,0.73-2.83,0.73
				C141.5,120.12,139.65,118,139.65,113.84z M145.23,119.99c1.21,0,2.26-0.33,3.13-0.98s1.33-1.3,1.39-1.93v-9.58
				c-1.29-0.56-2.39-0.84-3.32-0.84c-1.61,0-2.83,0.63-3.65,1.89c-0.82,1.26-1.22,3.02-1.22,5.29
				C141.55,117.94,142.78,119.99,145.23,119.99z"/>
			<path class="st0" d="M173.85,106.72l0.16-0.16c0.07,0.04,0.17,0.15,0.29,0.33c0.12,0.18,0.19,0.34,0.22,0.49
				c0.03,0.15,0.04,0.28,0.04,0.41c0,0.49-0.11,0.99-0.33,1.5l-5.22,10.88h-0.27l-5.06-13.6h1.9l4.16,11.26l4.22-8.54
				c0.22-0.38,0.33-0.83,0.33-1.36S174.14,106.99,173.85,106.72z"/>
			<path class="st0" d="M192.04,120.27c-1.91,0-3.47-0.54-4.67-1.63c-1.2-1.09-1.8-2.77-1.8-5.03c0-2.27,0.62-4.03,1.86-5.28
				c1.24-1.25,2.82-1.88,4.73-1.88c1.91,0,3.47,0.54,4.67,1.63c1.2,1.09,1.8,2.77,1.8,5.03c0,2.27-0.62,4.03-1.86,5.28
				C195.53,119.64,193.95,120.27,192.04,120.27z M192.22,106.66c-1.38,0-2.52,0.61-3.43,1.84c-0.91,1.22-1.36,2.93-1.36,5.12
				c0,2.19,0.42,3.8,1.25,4.86c0.83,1.05,1.94,1.58,3.32,1.58c1.38,0,2.52-0.61,3.43-1.84c0.91-1.22,1.36-2.93,1.36-5.12
				c0-2.19-0.42-3.8-1.25-4.86C194.7,107.19,193.59,106.66,192.22,106.66z"/>
			<path class="st0" d="M210.2,113.84c0-2.36,0.57-4.18,1.71-5.47c1.14-1.29,2.86-1.93,5.14-1.93c1.69,0,3.4,0.3,5.14,0.9v13.14
				c-0.02,4.32-1.9,6.48-5.66,6.48c-2.07,0-3.84-0.67-5.31-2.01l0.19-0.16c1.56,1.31,3.27,1.96,5.12,1.96c2.5,0,3.75-2.09,3.75-6.26
				v-2.69c-0.34,0.64-0.92,1.2-1.71,1.69c-0.8,0.49-1.74,0.73-2.83,0.73C212.05,120.12,210.2,118,210.2,113.84z M215.78,119.99
				c1.21,0,2.26-0.33,3.13-0.98c0.87-0.65,1.33-1.3,1.39-1.93v-9.6c-1.31-0.54-2.41-0.82-3.32-0.82c-1.61,0-2.83,0.63-3.65,1.89
				c-0.82,1.26-1.22,3.02-1.22,5.29C212.1,117.94,213.33,119.99,215.78,119.99z"/>
			<path class="st0" d="M245,120.16c-1.23,0-2.08-0.24-2.53-0.71c-0.42-0.4-0.63-0.74-0.63-1.03v-0.57
				c-0.89,1.61-2.31,2.42-4.27,2.42c-2.29,0-3.58-1.03-3.89-3.1c-0.04-0.22-0.05-0.44-0.05-0.67c0-0.23,0.04-0.48,0.11-0.75
				c0.07-0.27,0.28-0.57,0.63-0.9c0.69-0.65,2.2-1.05,4.54-1.2c0.58-0.05,1.12-0.08,1.61-0.08c0.49,0,0.93,0.02,1.33,0.05v-4.52
				c-0.04-0.02-0.04-0.1,0-0.26c0.04-0.15,0-0.35-0.1-0.6c-0.1-0.24-0.23-0.48-0.39-0.72c-0.16-0.24-0.45-0.44-0.87-0.61
				c-0.42-0.17-0.96-0.26-1.63-0.26c-0.67,0-1.46,0.12-2.35,0.37c-0.9,0.24-1.56,0.49-1.97,0.72l-0.11-0.19
				c1.61-0.74,3.26-1.12,4.92-1.12c1.87,0,3.1,0.34,3.7,1.01c0.47,0.53,0.71,1.08,0.71,1.66v9.11c0,0.53,0.1,0.93,0.31,1.21
				c0.21,0.28,0.42,0.43,0.64,0.45l0.3,0.05h0.84v0.22H245z M238,120.05c0.96,0,1.83-0.33,2.6-0.99c0.77-0.66,1.18-1.3,1.24-1.92
				v-3.29c-0.49-0.04-0.98-0.05-1.48-0.05c-0.5,0-0.99,0.03-1.48,0.08c-1.38,0.16-2.28,0.47-2.69,0.93
				c-0.42,0.45-0.63,1.08-0.63,1.88c0,0.15,0.01,0.31,0.03,0.49C235.75,119.09,236.55,120.05,238,120.05z"/>
			<path class="st0" d="M256.86,113.84c0-2.36,0.57-4.18,1.71-5.47c1.14-1.29,2.86-1.93,5.14-1.93c1.07,0,2.15,0.27,3.24,0.82v-7.48
				h1.9v18.45c0,0.53,0.1,0.93,0.31,1.21c0.21,0.28,0.42,0.43,0.64,0.45l0.3,0.05h0.84v0.22h-1.66c-0.74,0-1.31-0.16-1.7-0.49
				c-0.39-0.33-0.59-0.65-0.61-0.98l-0.03-0.46v-0.44c-0.34,0.64-0.92,1.2-1.71,1.69c-0.8,0.49-1.74,0.73-2.83,0.73
				C258.71,120.12,256.86,118,256.86,113.84z M262.44,119.99c1.21,0,2.26-0.33,3.13-0.98c0.87-0.65,1.33-1.3,1.39-1.93v-9.58
				c-1.29-0.56-2.39-0.84-3.32-0.84c-1.61,0-2.83,0.63-3.65,1.89c-0.82,1.26-1.22,3.02-1.22,5.29
				C258.76,117.94,259.99,119.99,262.44,119.99z"/>
			<path class="st0" d="M287.75,120.27c-1.91,0-3.47-0.54-4.67-1.63c-1.2-1.09-1.8-2.77-1.8-5.03c0-2.27,0.62-4.03,1.86-5.28
				c1.24-1.25,2.82-1.88,4.73-1.88c1.91,0,3.47,0.54,4.67,1.63c1.2,1.09,1.8,2.77,1.8,5.03c0,2.27-0.62,4.03-1.86,5.28
				C291.25,119.64,289.67,120.27,287.75,120.27z M287.93,106.66c-1.38,0-2.52,0.61-3.43,1.84c-0.91,1.22-1.36,2.93-1.36,5.12
				c0,2.19,0.42,3.8,1.25,4.86c0.83,1.05,1.94,1.58,3.32,1.58c1.38,0,2.52-0.61,3.43-1.84c0.91-1.22,1.36-2.93,1.36-5.12
				c0-2.19-0.42-3.8-1.25-4.86C290.42,107.19,289.31,106.66,287.93,106.66z"/>
			<path class="st0" d="M313.45,107.5c-0.29-0.24-0.76-0.44-1.4-0.6c-0.64-0.16-1.13-0.24-1.46-0.24c-0.33,0-0.52,0-0.57,0
				c-0.98,0.02-1.69,0.27-2.12,0.75c-0.44,0.48-0.65,1.02-0.65,1.62s0.19,1.1,0.57,1.51c0.38,0.41,0.86,0.73,1.43,0.95
				c0.57,0.23,1.19,0.49,1.85,0.78c0.66,0.29,1.28,0.58,1.85,0.88c0.57,0.3,1.05,0.73,1.43,1.31c0.38,0.57,0.57,1.28,0.57,2.14
				c0,0.85-0.3,1.58-0.9,2.18c-0.6,0.6-1.27,1-2,1.2c-0.73,0.2-1.53,0.3-2.38,0.3c-1.85,0-3.24-0.41-4.16-1.22l0.16-0.16
				c0.36,0.34,0.9,0.63,1.62,0.84s1.41,0.33,2.08,0.33c1.07,0,1.95-0.29,2.65-0.88c0.7-0.59,1.05-1.32,1.05-2.2
				c0-0.88-0.26-1.59-0.79-2.12c-0.53-0.53-1.17-0.95-1.92-1.25c-0.75-0.3-1.51-0.6-2.27-0.9c-0.76-0.3-1.41-0.72-1.93-1.25
				c-0.53-0.53-0.79-1.16-0.79-1.86c0-0.71,0.16-1.28,0.49-1.73c0.33-0.44,0.76-0.76,1.31-0.94c0.93-0.31,1.85-0.46,2.78-0.46
				c1.56,0,2.78,0.29,3.65,0.87L313.45,107.5z"/>
		</g>
	</g>
</g>
</svg>